<svg width="1584" height="396" viewBox="0 0 1584 396" fill="none" xmlns="http://www.w3.org/2000/svg">
<rect width="1584" height="396" fill="#F5F5F5"/>
<g id="Awesome banner" clip-path="url(#clip0_0_1)">
<rect width="1584" height="396" fill="url(#paint0_linear_0_1)"/>
<ellipse id="Ellipse 2" cx="323" cy="64" rx="285" ry="288" fill="url(#paint1_linear_0_1)" fill-opacity="0.1"/>
<g id="copyright">
<path d="M75.95 334.52L72.30 334.52L72.30 311.16L77.20 311.16L83.70 330.04Q83.60 329.02 83.50 327.62Q83.41 326.23 83.33 324.79Q83.25 323.35 83.25 322.23L83.25 311.16L86.90 311.16L86.90 334.52L82 334.52L75.57 315.64Q75.63 316.57 75.73 317.88Q75.82 319.19 75.89 320.57Q75.95 321.94 75.95 323.10L75.95 334.52M98.80 334.84Q96.46 334.84 94.67 333.96Q92.88 333.08 91.89 331.53Q90.90 329.98 90.90 327.93Q90.90 325.78 92.13 324.18Q93.36 322.58 95.34 322.17L95.34 322.10Q93.65 321.75 92.61 320.38Q91.57 319 91.57 317.11Q91.57 315.26 92.48 313.85Q93.39 312.44 95.02 311.64Q96.66 310.84 98.80 310.84Q100.94 310.84 102.59 311.64Q104.24 312.44 105.15 313.85Q106.06 315.26 106.06 317.11Q106.06 319 105.01 320.38Q103.95 321.75 102.26 322.10L102.26 322.17Q104.24 322.58 105.47 324.18Q106.70 325.78 106.70 327.93Q106.70 329.98 105.71 331.53Q104.72 333.08 102.93 333.96Q101.14 334.84 98.80 334.84M98.80 320.73Q100.30 320.73 101.23 319.82Q102.16 318.90 102.16 317.46Q102.16 315.99 101.23 315.08Q100.30 314.17 98.80 314.17Q97.30 314.17 96.37 315.08Q95.44 315.99 95.44 317.46Q95.44 318.90 96.37 319.82Q97.30 320.73 98.80 320.73M98.80 331.45Q100.56 331.45 101.68 330.42Q102.80 329.40 102.80 327.74Q102.80 326.04 101.68 325Q100.56 323.96 98.80 323.96Q97.04 323.96 95.92 325Q94.80 326.04 94.80 327.74Q94.80 329.40 95.92 330.42Q97.04 331.45 98.80 331.45M114.35 334.52L110.70 334.52L110.70 311.16L115.60 311.16L122.10 330.04Q122 329.02 121.90 327.62Q121.81 326.23 121.73 324.79Q121.65 323.35 121.65 322.23L121.65 311.16L125.30 311.16L125.30 334.52L120.40 334.52L113.97 315.64Q114.03 316.57 114.13 317.88Q114.22 319.19 114.29 320.57Q114.35 321.94 114.35 323.10" fill="white" fill-opacity="0.9"/>
<path d="M161.48 325.24L151.24 325.24L151.24 322.68L161.48 322.68" fill="white" fill-opacity="0.9"/>
<path d="M195.02 334.84Q191.82 334.84 189.96 333.05Q188.11 331.26 188.11 328.12L188.11 317.56Q188.11 314.42 189.96 312.63Q191.82 310.84 195.02 310.84Q198.15 310.84 200.01 312.65Q201.87 314.46 201.87 317.56L198.99 317.56Q198.99 315.58 197.95 314.50Q196.91 313.43 195.02 313.43Q193.13 313.43 192.06 314.50Q190.99 315.58 190.99 317.56L190.99 328.12Q190.99 330.10 192.06 331.18Q193.13 332.25 195.02 332.25Q196.91 332.25 197.95 331.18Q198.99 330.10 198.99 328.12L201.87 328.12Q201.87 331.22 200.01 333.03Q198.15 334.84 195.02 334.84" fill="white" fill-opacity="0.9"/>
<path d="M213.96 334.84Q210.83 334.84 209 333.02Q207.18 331.19 207.18 327.80L207.18 317.88Q207.18 314.49 209 312.66Q210.83 310.84 213.96 310.84Q217.10 310.84 218.92 312.66Q220.75 314.49 220.75 317.85L220.75 327.80Q220.75 331.19 218.92 333.02Q217.10 334.84 213.96 334.84M213.96 332.25Q215.85 332.25 216.86 331.18Q217.87 330.10 217.87 328.12L217.87 317.56Q217.87 315.58 216.86 314.50Q215.85 313.43 213.96 313.43Q212.11 313.43 211.08 314.50Q210.06 315.58 210.06 317.56L210.06 328.12Q210.06 330.10 211.08 331.18Q212.11 332.25 213.96 332.25" fill="white" fill-opacity="0.9"/>
<path d="M228.65 334.52L225.87 334.52L225.87 311.16L230.12 311.16L233.10 321.27L236.20 311.16L240.46 311.16L240.46 334.52L237.67 334.52L237.67 323.48Q237.67 321.91 237.72 319.88Q237.77 317.85 237.87 315.77Q237.96 313.69 238.09 312.02L234.31 324.09L231.82 324.09L228.20 312.31Q228.46 314.68 228.55 317.50Q228.65 320.31 228.65 323.48" fill="white" fill-opacity="0.9"/>
<path d="M247.85 334.52L245.07 334.52L245.07 311.16L249.32 311.16L252.30 321.27L255.40 311.16L259.66 311.16L259.66 334.52L256.87 334.52L256.87 323.48Q256.87 321.91 256.92 319.88Q256.97 317.85 257.07 315.77Q257.16 313.69 257.29 312.02L253.51 324.09L251.02 324.09L247.40 312.31Q247.66 314.68 247.75 317.50Q247.85 320.31 247.85 323.48" fill="white" fill-opacity="0.9"/>
<path d="M271.56 334.84Q268.30 334.84 266.57 333.03Q264.84 331.22 264.84 328.12L264.84 311.16L267.72 311.16L267.72 328.12Q267.72 330.04 268.67 331.16Q269.61 332.28 271.56 332.28Q273.48 332.28 274.44 331.16Q275.40 330.04 275.40 328.12L275.40 311.16L278.28 311.16L278.28 328.12Q278.28 331.26 276.57 333.05Q274.86 334.84 271.56 334.84" fill="white" fill-opacity="0.9"/>
<path d="M286.83 334.52L284.04 334.52L284.04 311.16L287.88 311.16L295.02 331.16Q294.95 330.36 294.87 329.19Q294.79 328.02 294.75 326.73Q294.70 325.43 294.70 324.28L294.70 311.16L297.48 311.16L297.48 334.52L293.64 334.52L286.54 314.52Q286.60 315.29 286.67 316.46Q286.73 317.62 286.78 318.92Q286.83 320.22 286.83 321.40" fill="white" fill-opacity="0.9"/>
<path d="M316.20 334.52L303.72 334.52L303.72 331.90L308.49 331.90L308.49 313.78L303.72 313.78L303.72 311.16L316.20 311.16L316.20 313.78L311.43 313.78L311.43 331.90L316.20 331.90" fill="white" fill-opacity="0.9"/>
<path d="M330.60 334.52L327.72 334.52L327.72 313.78L321.32 313.78L321.32 311.16L337 311.16L337 313.78L330.60 313.78" fill="white" fill-opacity="0.9"/>
<path d="M349.80 334.52L346.92 334.52L346.92 325.78L339.88 311.16L342.95 311.16L347.50 320.76Q347.88 321.56 348.11 322.12Q348.33 322.68 348.39 322.94Q348.46 322.68 348.70 322.12Q348.94 321.56 349.32 320.76L353.87 311.16L356.84 311.16L349.80 325.78" fill="white" fill-opacity="0.9"/>
<path d="M382.83 334.52L380.04 334.52L380.04 311.16L383.88 311.16L391.02 331.16Q390.95 330.36 390.87 329.19Q390.79 328.02 390.75 326.73Q390.70 325.43 390.70 324.28L390.70 311.16L393.48 311.16L393.48 334.52L389.64 334.52L382.54 314.52Q382.60 315.29 382.67 316.46Q382.73 317.62 382.78 318.92Q382.83 320.22 382.83 321.40" fill="white" fill-opacity="0.9"/>
<path d="M405.96 334.84Q402.83 334.84 401 333.02Q399.18 331.19 399.18 327.80L399.18 317.88Q399.18 314.49 401 312.66Q402.83 310.84 405.96 310.84Q409.10 310.84 410.92 312.66Q412.75 314.49 412.75 317.85L412.75 327.80Q412.75 331.19 410.92 333.02Q409.10 334.84 405.96 334.84M405.96 332.25Q407.85 332.25 408.86 331.18Q409.87 330.10 409.87 328.12L409.87 317.56Q409.87 315.58 408.86 314.50Q407.85 313.43 405.96 313.43Q404.11 313.43 403.08 314.50Q402.06 315.58 402.06 317.56L402.06 328.12Q402.06 330.10 403.08 331.18Q404.11 332.25 405.96 332.25" fill="white" fill-opacity="0.9"/>
<path d="M424.55 334.52L418.51 334.52L418.51 311.16L424.55 311.16Q426.83 311.16 428.47 312.02Q430.12 312.89 431.03 314.46Q431.95 316.02 431.95 318.17L431.95 327.48Q431.95 329.62 431.03 331.21Q430.12 332.79 428.47 333.66Q426.83 334.52 424.55 334.52M421.39 313.72L421.39 331.96L424.55 331.96Q426.67 331.96 427.87 330.78Q429.07 329.59 429.07 327.48L429.07 318.17Q429.07 316.09 427.87 314.90Q426.67 313.72 424.55 313.72" fill="white" fill-opacity="0.9"/>
<path d="M451.40 334.52L437.96 334.52L437.96 311.16L451.40 311.16L451.40 313.78L440.81 313.78L440.81 321.02L450.28 321.02L450.28 323.58L440.81 323.58L440.81 331.90L451.40 331.90" fill="white" fill-opacity="0.9"/>
<path d="M463.69 334.84Q460.30 334.84 458.28 333.05Q456.27 331.26 456.27 328.12L459.15 328.12Q459.15 330.07 460.39 331.18Q461.64 332.28 463.69 332.28Q465.67 332.28 466.86 331.13Q468.04 329.98 468.04 328.12Q468.04 326.71 467.29 325.67Q466.54 324.63 465.13 324.25L461.58 323.26Q459.37 322.62 458.11 320.97Q456.84 319.32 456.84 317.08Q456.84 315.22 457.67 313.82Q458.51 312.41 460.01 311.62Q461.51 310.84 463.47 310.84Q465.45 310.84 466.97 311.62Q468.49 312.41 469.35 313.80Q470.22 315.19 470.22 317.02L467.34 317.02Q467.34 315.42 466.25 314.41Q465.16 313.40 463.47 313.40Q461.77 313.40 460.71 314.41Q459.66 315.42 459.66 317.02Q459.66 318.30 460.35 319.21Q461.03 320.12 462.28 320.47L465.93 321.50Q468.27 322.14 469.56 323.91Q470.86 325.69 470.86 328.12Q470.86 331.19 468.91 333.02Q466.95 334.84 463.69 334.84" fill="white" fill-opacity="0.9"/>
</g>
<path d="M77.20 197.88Q74.85 197.88 73.48 196.51Q72.11 195.14 72.11 192.60L72.11 185.16Q72.11 182.62 73.48 181.25Q74.85 179.88 77.20 179.88Q79.55 179.88 80.92 181.25Q82.29 182.62 82.29 185.14L82.29 192.60Q82.29 195.14 80.92 196.51Q79.55 197.88 77.20 197.88M77.20 195.94Q78.62 195.94 79.37 195.13Q80.13 194.33 80.13 192.84L80.13 184.92Q80.13 183.43 79.37 182.63Q78.62 181.82 77.20 181.82Q75.81 181.82 75.04 182.63Q74.27 183.43 74.27 184.92L74.27 192.84Q74.27 194.33 75.04 195.13Q75.81 195.94 77.20 195.94" fill="white" fill-opacity="0.7"/>
<path d="M88.77 201.96L86.61 201.96L86.61 184.44L88.77 184.44L88.77 186.96L88.79 186.96Q88.96 185.66 89.92 184.93Q90.88 184.20 92.37 184.20Q94.36 184.20 95.54 185.51Q96.71 186.82 96.71 189.10L96.71 192.96Q96.71 195.24 95.54 196.56Q94.36 197.88 92.37 197.88Q90.88 197.88 89.92 197.14Q88.96 196.39 88.79 195.12L88.72 195.12L88.77 198.12L88.77 201.96M91.65 196.01Q93.02 196.01 93.78 195.29Q94.55 194.57 94.55 192.96L94.55 189.12Q94.55 187.49 93.78 186.78Q93.02 186.07 91.65 186.07Q90.33 186.07 89.55 186.91Q88.77 187.75 88.77 189.24L88.77 192.84Q88.77 194.33 89.55 195.17Q90.33 196.01 91.65 196.01" fill="white" fill-opacity="0.7"/>
<path d="MNaN 197.88Q103.67 197.88 102.24 196.48Q100.82 195.07 100.82 192.60L100.82 189.48Q100.82 187.01 102.24 185.60Q103.67 184.20 NaN 184.20Q107.56 184.20 108.72 184.82Q109.89 185.45 110.54 186.58Q111.18 187.70 111.18 189.24L111.18 191.59L102.93 191.59L102.93 192.84Q102.93 194.30 103.77 195.16Q104.61 196.01 NaN 196.01Q107.20 196.01 107.98 195.54Q108.76 195.07 108.93 194.28L111.09 194.28Q110.87 195.94 109.48 196.91Q108.09 197.88 NaN 197.88M102.93 189.24L102.93 189.91L109.07 189.91L109.07 189.24Q109.07 187.68 108.27 186.83Q107.46 185.98 NaN 185.98Q104.54 185.98 103.73 186.83Q102.93 187.68 102.93 189.24" fill="white" fill-opacity="0.7"/>
<path d="M117.57 197.64L115.41 197.64L115.41 184.44L117.57 184.44L117.57 186.96L117.59 186.96Q117.76 185.64 118.67 184.92Q119.58 184.20 121.10 184.20Q123.09 184.20 124.26 185.42Q125.44 186.65 125.44 188.76L125.44 197.64L123.28 197.64L123.28 189.14Q123.28 187.63 122.52 186.83Q121.77 186.02 120.47 186.02Q119.13 186.02 118.35 186.86Q117.57 187.70 117.57 189.24" fill="white" fill-opacity="0.7"/>
<path d="M150.28 197.64L148.12 197.64L148.12 182.09L143.32 182.09L143.32 180.12L155.08 180.12L155.08 182.09L150.28 182.09" fill="white" fill-opacity="0.7"/>
<path d="M162.45 197.88Q160.41 197.88 159.21 196.74Q158.01 195.60 158.01 193.75Q158.01 192.53 158.56 191.62Q159.11 190.70 160.10 190.19Q161.08 189.67 162.35 189.67L166.43 189.67L166.43 188.64Q166.43 186.07 163.62 186.07Q162.38 186.07 161.61 186.53Q160.84 186.98 160.79 187.80L158.63 187.80Q158.75 186.24 160.08 185.22Q161.42 184.20 163.62 184.20Q166.02 184.20 167.31 185.35Q168.59 186.50 168.59 188.57L168.59 197.64L166.46 197.64L166.46 195.24L166.41 195.24Q166.22 196.46 165.18 197.17Q164.15 197.88 162.45 197.88M162.98 196.06Q164.56 196.06 165.50 195.29Q166.43 194.52 166.43 193.20L166.43 191.35L162.59 191.35Q161.54 191.35 160.88 191.99Q160.22 192.62 160.22 193.68Q160.22 194.78 160.95 195.42Q161.68 196.06 162.98 196.06" fill="white" fill-opacity="0.7"/>
<path d="M175.65 197.64L173.49 197.64L173.49 184.44L175.65 184.44L175.65 186.96L175.70 186.96Q175.86 185.69 176.78 184.94Q177.69 184.20 179.22 184.20Q181.29 184.20 182.40 185.44Q183.52 186.67 183.52 188.95L183.52 190.08L181.36 190.08L181.36 188.95Q181.36 186.07 178.55 186.07Q177.14 186.07 176.39 186.89Q175.65 187.70 175.65 189.24" fill="white" fill-opacity="0.7"/>
<path d="M192.76 201.96L189.06 201.96L189.06 199.99L192.78 199.99Q193.91 199.99 194.56 199.36Q195.21 198.72 195.21 197.64L195.21 196.44L195.26 194.28L195.18 194.28Q194.99 195.46 194.06 196.09Q193.12 196.73 191.70 196.73Q189.66 196.73 188.49 195.43Q187.31 194.14 187.31 191.88L187.31 189.10Q187.31 186.84 188.49 185.52Q189.66 184.20 191.70 184.20Q193.12 184.20 194.06 184.87Q194.99 185.54 195.18 186.72L195.23 186.72L195.23 184.44L197.37 184.44L197.37 197.64Q197.37 199.63 196.13 200.80Q194.90 201.96 192.76 201.96M192.35 194.93Q193.70 194.93 194.46 194.09Q195.23 193.25 195.23 191.76L195.23 189.24Q195.23 187.75 194.46 186.91Q193.70 186.07 192.35 186.07Q190.98 186.07 190.23 186.86Q189.47 187.66 189.47 189L189.47 192Q189.47 193.34 190.23 194.14Q190.98 194.93 192.35 194.93" fill="white" fill-opacity="0.7"/>
<path d="M206.80 197.88Q204.47 197.88 203.04 196.48Q201.62 195.07 201.62 192.60L201.62 189.48Q201.62 187.01 203.04 185.60Q204.47 184.20 206.80 184.20Q208.36 184.20 209.52 184.82Q210.69 185.45 211.34 186.58Q211.98 187.70 211.98 189.24L211.98 191.59L203.73 191.59L203.73 192.84Q203.73 194.30 204.57 195.16Q205.41 196.01 206.80 196.01QNaN 196.01 208.78 195.54Q209.56 195.07 209.73 194.28L211.89 194.28Q211.67 195.94 210.28 196.91Q208.89 197.88 206.80 197.88M203.73 189.24L203.73 189.91L209.87 189.91L209.87 189.24Q209.87 187.68 209.07 186.83Q208.26 185.98 206.80 185.98Q205.34 185.98 204.53 186.83Q203.73 187.68 203.73 189.24" fill="white" fill-opacity="0.7"/>
<path d="M226.36 197.64L222.52 197.64Q220.89 197.64 219.90 196.69Q218.92 195.74 218.92 194.16L218.92 186.41L215.13 186.41L215.13 184.44L218.92 184.44L218.92 180.72L221.08 180.72L221.08 184.44L226.48 184.44L226.48 186.41L221.08 186.41L221.08 194.16Q221.08 194.83 221.48 195.25Q221.87 195.67 222.52 195.67L226.36 195.67" fill="white" fill-opacity="0.7"/>
<path d="M236.13 197.83L235.07 197.83Q232.86 197.83 231.65 196.84Q230.44 195.84 230.44 194.02L232.60 194.02Q232.60 194.93 233.25 195.44Q233.90 195.96 235.07 195.96L236.13 195.96Q237.33 195.96 237.99 195.43Q238.65 194.90 238.65 193.94Q238.65 192.24 237.09 192.02L233.44 191.50Q232.10 191.30 231.35 190.38Q230.61 189.46 230.61 187.94Q230.61 186.22 231.80 185.23Q232.98 184.25 235.07 184.25L236.13 184.25Q238.05 184.25 239.26 185.20Q240.47 186.14 240.57 187.68L238.38 187.68Q238.34 186.98 237.72 186.53Q237.11 186.07 236.13 186.07L235.07 186.07Q233.97 186.07 233.34 186.58Q232.72 187.08 232.72 187.94Q232.72 189.34 233.99 189.53L237.40 190.01Q240.76 190.49 240.76 193.94Q240.76 195.79 239.55 196.81Q238.34 197.83 236.13 197.83" fill="white" fill-opacity="0.7"/>
<path d="M261.57 197.64L259.41 197.64L259.41 180.12L265.05 180.12Q267.50 180.12 268.95 181.52Q270.40 182.93 270.40 185.28Q270.40 187.63 268.95 189.04Q267.50 190.44 265.05 190.44L261.57 190.44L261.57 197.64M261.57 182.06L261.57 188.50L265.05 188.50Q266.46 188.50 267.32 187.62Q268.17 186.74 268.17 185.28Q268.17 183.79 267.32 182.93Q266.46 182.06 265.05 182.06" fill="white" fill-opacity="0.7"/>
<path d="M284.80 197.64L280.72 197.64Q278.97 197.64 277.92 196.62Q276.88 195.60 276.88 193.92L276.88 182.09L272.32 182.09L272.32 180.12L279.04 180.12L279.04 193.92Q279.04 194.74 279.50 195.20Q279.95 195.67 280.72 195.67L284.80 195.67" fill="white" fill-opacity="0.7"/>
<path d="M292.05 197.88Q290.01 197.88 288.81 196.74Q287.61 195.60 287.61 193.75Q287.61 192.53 288.16 191.62Q288.71 190.70 289.70 190.19Q290.68 189.67 291.95 189.67L296.03 189.67L296.03 188.64Q296.03 186.07 293.22 186.07Q291.98 186.07 291.21 186.53Q290.44 186.98 290.39 187.80L288.23 187.80Q288.35 186.24 289.68 185.22Q291.02 184.20 293.22 184.20Q295.62 184.20 296.91 185.35Q298.19 186.50 298.19 188.57L298.19 197.64L296.06 197.64L296.06 195.24L296.01 195.24Q295.82 196.46 294.78 197.17Q293.75 197.88 292.05 197.88M292.58 196.06Q294.16 196.06 295.10 195.29Q296.03 194.52 296.03 193.20L296.03 191.35L292.19 191.35Q291.14 191.35 290.48 191.99Q289.82 192.62 289.82 193.68Q289.82 194.78 290.55 195.42Q291.28 196.06 292.58 196.06" fill="white" fill-opacity="0.7"/>
<path d="M312.76 197.64L308.92 197.64Q307.29 197.64 306.30 196.69Q305.32 195.74 305.32 194.16L305.32 186.41L301.53 186.41L301.53 184.44L305.32 184.44L305.32 180.72L307.48 180.72L307.48 184.44L312.88 184.44L312.88 186.41L307.48 186.41L307.48 194.16Q307.48 194.83 307.88 195.25Q308.27 195.67 308.92 195.67L312.76 195.67" fill="white" fill-opacity="0.7"/>
<path d="M322.12 197.64L319.96 197.64L319.96 188.21L316.12 188.21L316.12 186.24L319.96 186.24L319.96 183.48Q319.96 181.92 320.94 181.02Q321.93 180.12 323.66 180.12L327.52 180.12L327.52 182.09L323.66 182.09Q322.12 182.09 322.12 183.48L322.12 186.24L327.52 186.24L327.52 188.21L322.12 188.21" fill="white" fill-opacity="0.7"/>
<path d="M336.40 197.83Q334.02 197.83 332.62 196.44Q331.22 195.05 331.22 192.55L331.22 189.53Q331.22 187.01 332.61 185.63Q334 184.25 336.40 184.25Q338.80 184.25 340.19 185.63Q341.58 187.01 341.58 189.53L341.58 192.55Q341.58 195.05 340.18 196.44Q338.78 197.83 336.40 197.83M336.40 195.91Q337.82 195.91 338.62 195.12Q339.42 194.33 339.42 192.79L339.42 189.29Q339.42 187.75 338.62 186.96Q337.82 186.17 336.40 186.17Q335.01 186.17 334.19 186.96Q333.38 187.75 333.38 189.29L333.38 192.79Q333.38 194.33 334.19 195.12Q335.01 195.91 336.40 195.91" fill="white" fill-opacity="0.7"/>
<path d="M348.45 197.64L346.29 197.64L346.29 184.44L348.45 184.44L348.45 186.96L348.50 186.96Q348.66 185.69 349.58 184.94Q350.49 184.20 352.02 184.20Q354.09 184.20 355.20 185.44Q356.32 186.67 356.32 188.95L356.32 190.08L354.16 190.08L354.16 188.95Q354.16 186.07 351.35 186.07Q349.94 186.07 349.19 186.89Q348.45 187.70 348.45 189.24" fill="white" fill-opacity="0.7"/>
<path d="M361.46 197.64L359.44 197.64L359.44 184.44L361.31 184.44L361.31 186.19L361.36 186.19Q361.48 185.30 362.07 184.75Q362.66 184.20 363.57 184.20Q364.43 184.20 365.03 184.70Q365.63 185.21 365.90 186.07L365.92 186.07Q366.09 185.21 366.68 184.70Q367.26 184.20 368.18 184.20Q369.45 184.20 370.20 185.15Q370.96 186.10 370.96 187.61L370.96 197.64L368.94 197.64L368.94 187.58Q368.94 186.79 368.56 186.32Q368.18 185.86 367.50 185.86Q366.86 185.86 366.47 186.31Q366.09 186.77 366.09 187.56L366.09 197.64L364.31 197.64L364.31 187.58Q364.31 186.79 363.93 186.32Q363.54 185.86 362.90 185.86Q362.22 185.86 361.84 186.31Q361.46 186.77 361.46 187.56" fill="white" fill-opacity="0.7"/>
<path d="M391.17 197.64L389.03 197.64L389.03 180.12L394.43 180.12Q395.99 180.12 397.17 180.76Q398.34 181.39 398.99 182.52Q399.64 183.65 399.64 185.16Q399.64 186.94 398.73 188.21Q397.82 189.48 396.30 189.98L399.88 197.64L397.50 197.64L394.07 190.20L391.17 190.20L391.17 197.64M391.17 182.06L391.17 188.26L394.43 188.26Q395.78 188.26 396.59 187.40Q397.41 186.55 397.41 185.16Q397.41 183.74 396.59 182.90Q395.78 182.06 394.43 182.06" fill="white" fill-opacity="0.7"/>
<path d="M413.68 197.64L403.60 197.64L403.60 180.12L413.68 180.12L413.68 182.09L405.74 182.09L405.74 187.51L412.84 187.51L412.84 189.43L405.74 189.43L405.74 195.67L413.68 195.67" fill="white" fill-opacity="0.7"/>
<path d="M422.90 197.88Q420.35 197.88 418.84 196.54Q417.33 195.19 417.33 192.84L419.49 192.84Q419.49 194.30 420.42 195.13Q421.36 195.96 422.90 195.96Q424.38 195.96 425.27 195.10Q426.16 194.23 426.16 192.84Q426.16 191.78 425.60 191Q425.03 190.22 423.98 189.94L421.31 189.19Q419.66 188.71 418.71 187.48Q417.76 186.24 417.76 184.56Q417.76 183.17 418.38 182.11Q419.01 181.06 420.14 180.47Q421.26 179.88 422.73 179.88Q424.22 179.88 425.36 180.47Q426.50 181.06 427.14 182.10Q427.79 183.14 427.79 184.51L425.63 184.51Q425.63 183.31 424.82 182.56Q424 181.80 422.73 181.80Q421.46 181.80 420.66 182.56Q419.87 183.31 419.87 184.51Q419.87 185.47 420.39 186.16Q420.90 186.84 421.84 187.10L424.58 187.87Q426.33 188.35 427.30 189.68Q428.27 191.02 428.27 192.84Q428.27 195.14 426.81 196.51Q425.34 197.88 422.90 197.88" fill="white" fill-opacity="0.7"/>
<path d="M438.28 197.64L436.12 197.64L436.12 182.09L431.32 182.09L431.32 180.12L443.08 180.12L443.08 182.09L438.28 182.09" fill="white" fill-opacity="0.7"/>
<path d="M462.21 197.64L460 197.64L464.56 180.12L467.46 180.12L472 197.64L469.82 197.64L468.66 192.98L463.36 192.98L462.21 197.64M465.14 185.74L463.79 191.16L468.21 191.16L466.86 185.76Q466.48 184.22 466.26 183.19Q466.05 182.16 466 181.85Q465.95 182.16 465.74 183.19Q465.52 184.22 465.14 185.74" fill="white" fill-opacity="0.7"/>
<path d="M477.57 197.64L475.41 197.64L475.41 180.12L481.05 180.12Q483.50 180.12 484.95 181.52Q486.40 182.93 486.40 185.28Q486.40 187.63 484.95 189.04Q483.50 190.44 481.05 190.44L477.57 190.44L477.57 197.64M477.57 182.06L477.57 188.50L481.05 188.50Q482.46 188.50 483.32 187.62Q484.17 186.74 484.17 185.28Q484.17 183.79 483.32 182.93Q482.46 182.06 481.05 182.06" fill="white" fill-opacity="0.7"/>
<path d="M499.48 197.64L490.12 197.64L490.12 195.67L493.70 195.67L493.70 182.09L490.12 182.09L490.12 180.12L499.48 180.12L499.48 182.09L495.90 182.09L495.90 195.67L499.48 195.67" fill="white" fill-opacity="0.7"/>
<path d="M90.80 137.02Q81.20 137.02 75.63 131.45Q70.06 125.88 70.06 115.71L70.06 86.24Q70.06 76.16 75.63 70.59Q81.20 65.02 90.80 65.02Q100.40 65.02 105.97 70.54Q111.54 76.06 111.54 86.24L111.54 115.71Q111.54 125.88 105.97 131.45Q100.40 137.02 90.80 137.02M90.80 128.57Q96.18 128.57 99.10 125.50Q102.03 122.43 102.03 116.67L102.03 85.28Q102.03 79.61 99.15 76.54Q96.27 73.47 90.80 73.47Q85.33 73.47 82.45 76.54Q79.57 79.61 79.57 85.28L79.57 116.67Q79.57 122.43 82.50 125.50Q85.42 128.57 90.80 128.57M137.55 136.06L128.05 136.06L128.05 65.98L150.80 65.98Q157.52 65.98 162.42 68.57Q167.31 71.16 170 75.82Q172.69 80.48 172.69 86.91Q172.69 93.24 170 97.90Q167.31 102.56 162.37 105.15Q157.42 107.74 150.80 107.74L137.55 107.74L137.55 136.06M137.55 74.43L137.55 99.29L150.80 99.29Q156.37 99.29 159.63 95.88Q162.90 92.48 162.90 86.91Q162.90 81.24 159.63 77.84Q156.37 74.43 150.80 74.43L137.55 74.43M227.31 136.06L186.51 136.06L186.51 65.98L227.31 65.98L227.31 74.52L195.92 74.52L195.92 95.36L223.95 95.36L223.95 103.61L195.92 103.61L195.92 127.52L227.31 127.52L227.31 136.06M251.98 136.06L243.06 136.06L243.06 65.98L255.34 65.98L276.27 125.12Q275.98 122.62 275.74 118.92Q275.50 115.23 275.36 111.24Q275.22 107.26 275.22 103.71L275.22 65.98L284.24 65.98L284.24 136.06L271.86 136.06L251.12 76.92Q251.31 79.42 251.50 83.02Q251.70 86.62 251.84 90.56Q251.98 94.49 251.98 97.95L251.98 136.06M326 136.06L316.50 136.06L316.50 74.62L297.49 74.62L297.49 65.98L344.91 65.98L344.91 74.62L326 74.62L326 136.06M364.11 136.06L354.42 136.06L372.56 65.98L385.14 65.98L403.18 136.06L393.49 136.06L389.07 117.82L368.53 117.82L364.11 136.06M375.54 88.92L370.45 109.95L387.15 109.95L382.16 89.02Q380.72 83.26 379.86 79.23Q378.99 75.20 378.80 73.76Q378.61 75.20 377.74 79.23Q376.88 83.26 375.54 88.92M425.55 136.06L416.14 136.06L416.14 65.98L437.84 65.98Q444.27 65.98 449.07 68.52Q453.87 71.07 456.56 75.63Q459.25 80.19 459.25 86.33Q459.25 93.44 455.65 98.52Q452.05 103.61 446.10 105.72L460.21 136.06L449.74 136.06L436.40 106.78L425.55 106.78L425.55 136.06M425.55 74.43L425.55 98.33L437.84 98.33Q443.22 98.33 446.34 95.07Q449.46 91.80 449.46 86.43Q449.46 80.96 446.29 77.69Q443.12 74.43 437.84 74.43L425.55 74.43M494.38 137.02Q484.69 137.02 478.98 131.60Q473.26 126.17 473.26 116.67L473.26 85.28Q473.26 75.87 478.98 70.44Q484.69 65.02 494.38 65.02Q503.98 65.02 509.70 70.49Q515.41 75.96 515.41 85.28L505.90 85.28Q505.90 79.61 502.83 76.54Q499.76 73.47 494.38 73.47Q488.91 73.47 485.84 76.54Q482.77 79.61 482.77 85.28L482.77 116.67Q482.77 122.43 485.84 125.50Q488.91 128.57 494.38 128.57Q499.76 128.57 502.83 125.50Q505.90 122.43 505.90 116.67L505.90 107.55L492.27 107.55L492.27 99.10L515.41 99.10L515.41 116.67Q515.41 126.08 509.70 131.55Q503.98 137.02 494.38 137.02M572.91 136.06L532.11 136.06L532.11 65.98L572.91 65.98L572.91 74.52L541.52 74.52L541.52 95.36L569.55 95.36L569.55 103.61L541.52 103.61L541.52 127.52L572.91 127.52L572.91 136.06MNaN 136.06L604.50 136.06L604.50 74.62L585.49 74.62L585.49 65.98L632.91 65.98L632.91 74.62LNaN 74.62LNaN 136.06M667.18 137.02Q656.82 137.02 650.67 131.60Q644.53 126.17 644.53 116.67L654.03 116.67Q654.03 122.24 657.58 125.40Q661.14 128.57 667.18 128.57Q672.94 128.57 676.35 125.36Q679.76 122.14 679.76 116.76Q679.76 112.73 677.55 109.71Q675.34 106.68 671.31 105.63L660.94 102.84Q654.13 100.92 650.14 95.88Q646.16 90.84 646.16 83.93Q646.16 78.27 648.70 74Q651.25 69.72 655.86 67.37Q660.46 65.02 666.51 65.02Q672.66 65.02 677.31 67.37Q681.97 69.72 684.56 73.95Q687.15 78.17 687.15 83.74L677.74 83.74Q677.74 79.13 674.62 76.25Q671.50 73.37 666.51 73.37Q661.52 73.37 658.50 76.25Q655.47 79.13 655.47 83.74Q655.47 87.48 657.49 90.03Q659.50 92.57 663.15 93.63L673.81 96.51Q681.01 98.43 685.04 103.85Q689.07 109.28 689.07 116.76Q689.07 122.91 686.38 127.47Q683.70 132.03 678.75 134.52Q673.81 137.02 667.18 137.02" fill="url(#paint2_linear_0_1)"/>
<g id="Group 1">
<rect id="Rectangle 1" x="26" y="168" width="12" height="184" rx="5" fill="url(#paint3_linear_0_1)" fill-opacity="0.9"/>
</g>
<g id="Group 1_2">
<rect id="Rectangle 2" x="26" y="38" width="12" height="119" rx="5" fill="url(#paint4_linear_0_1)" fill-opacity="0.9"/>
</g>
<ellipse id="Ellipse 1" cx="148.5" cy="573" rx="215.5" ry="214" fill="url(#paint5_linear_0_1)" fill-opacity="0.4"/>
<rect id="Rectangle 3" x="1229" y="48" width="300" height="300" rx="25" fill="#FFFBFB" fill-opacity="0.9"/>
<g id="placeholder-logo"><g transform="translate(1229,48) translate(0.0,94.8) scale(1.1913)"><defs><style>.cls-1{fill:#5a5f5f;}.cls-2{fill:#b2def9;}.cls-3{fill:#0091eb;}</style></defs><title>CTI_OT_Primary_Logo_RGB</title><path class="cls-1" d="M128.76 43.8a1.33 1.33 0 0 1 1.33-1.36 1.35 1.35 0 0 1 1.36 1.36v.73a4.7 4.7 0 0 1 4-2.2c2.76 0 5.45 2.18 5.45 6.1 0 3.89-2.67 6.1-5.45 6.1a4.8 4.8 0 0 1-4-2.07v4.16a1.35 1.35 0 0 1-2.69 0V43.8zm9.41 4.67a3.48 3.48 0 0 0-3.36-3.76 3.54 3.54 0 0 0-3.43 3.76 3.54 3.54 0 0 0 3.43 3.76 3.44 3.44 0 0 0 3.36-3.76zM148.38 54.59a5.86 5.86 0 0 1-6-6.1 5.83 5.83 0 0 1 5.74-6.12 5.56 5.56 0 0 1 5.58 5.78 1.26 1.26 0 0 1-1.27 1.29H145a3.28 3.28 0 0 0 3.38 3 4.22 4.22 0 0 0 2.78-1 1 1 0 0 1 .69-.24 1.06 1.06 0 0 1 1.15 1.01 1.17 1.17 0 0 1-.36.82 6 6 0 0 1-4.26 1.56zm2.67-7c-.18-1.74-1.2-3.09-3-3.09s-2.8 1.27-3 3.09h6zM155.37 43.8a1.33 1.33 0 0 1 1.33-1.36 1.35 1.35 0 0 1 1.36 1.36v.58a4.26 4.26 0 0 1 3.67-2c2.65 0 4.18 1.78 4.18 4.49v6.23a1.31 1.31 0 0 1-1.33 1.33 1.33 1.33 0 0 1-1.36-1.33v-5.45c0-1.82-.91-2.87-2.51-2.87a2.61 2.61 0 0 0-2.65 2.91v5.41a1.35 1.35 0 0 1-2.69 0v-9.3zM179.33 41.29h-3.78a1.27 1.27 0 1 1 0-2.54h10.35a1.27 1.27 0 0 1 0 2.54h-3.8v11.79a1.38 1.38 0 0 1-2.76 0V41.29zM186.32 50.94c0-2.54 2-3.78 4.85-3.78a9.82 9.82 0 0 1 3.16.49v-.33c0-1.67-1-2.56-2.91-2.56a7 7 0 0 0-2.6.47 1.52 1.52 0 0 1-.42.07 1.12 1.12 0 0 1-1.13-1.11 1.18 1.18 0 0 1 .73-1.07 10.07 10.07 0 0 1 3.78-.69 5.26 5.26 0 0 1 3.89 1.31 4.87 4.87 0 0 1 1.27 3.63v5.79a1.28 1.28 0 0 1-1.31 1.29 1.22 1.22 0 0 1-1.31-1.13v-.46a4.77 4.77 0 0 1-3.83 1.71c-2.21 0-4.17-1.27-4.17-3.63zm8.05-.85v-.79a7.46 7.46 0 0 0-2.67-.47c-1.74 0-2.76.73-2.76 2 0 1.13 1 1.78 2.29 1.78 1.77 0 3.14-1.02 3.14-2.51zM199.29 43.8a1.33 1.33 0 0 1 1.33-1.36A1.35 1.35 0 0 1 202 43.8V45c.62-1.47 1.78-2.58 3-2.58a1.25 1.25 0 0 1 1.33 1.33 1.26 1.26 0 0 1-1.12 1.25c-1.91.33-3.23 1.8-3.23 4.58v3.52a1.34 1.34 0 0 1-1.36 1.33 1.32 1.32 0 0 1-1.33-1.33v-9.3zM208.48 56.88a1.1 1.1 0 0 1-.76-1.07 1.14 1.14 0 0 1 1.13-1.11 1.06 1.06 0 0 1 .49.11 7.19 7.19 0 0 0 3.6.93c2.4 0 3.71-1.25 3.71-3.6v-.91a4.92 4.92 0 0 1-4.14 2.16 5.28 5.28 0 0 1-5.34-5.5 5.3 5.3 0 0 1 5.34-5.52 5.07 5.07 0 0 1 4.12 2v-.59a1.35 1.35 0 0 1 2.69 0v8.12a6 6 0 0 1-1.49 4.43 6.61 6.61 0 0 1-4.83 1.6 10.15 10.15 0 0 1-4.52-1.05zm8.21-9a3.28 3.28 0 0 0-3.45-3.23 3.17 3.17 0 0 0-3.34 3.23 3.2 3.2 0 0 0 3.34 3.23 3.28 3.28 0 0 0 3.45-3.24zM227.08 54.59a5.86 5.86 0 0 1-6-6.1 5.83 5.83 0 0 1 5.74-6.12 5.56 5.56 0 0 1 5.58 5.78 1.26 1.26 0 0 1-1.27 1.29h-7.36a3.28 3.28 0 0 0 3.38 3 4.22 4.22 0 0 0 2.78-1 1 1 0 0 1 .69-.24 1.06 1.06 0 0 1 1.07 1.09 1.17 1.17 0 0 1-.36.82 6 6 0 0 1-4.25 1.48zm2.67-7c-.18-1.74-1.2-3.09-3-3.09s-2.8 1.27-3 3.09h6zM234.91 51.08v-6.19h-.45a1.16 1.16 0 0 1 0-2.31h.45v-2a1.35 1.35 0 0 1 2.69 0v2h2.11a1.16 1.16 0 1 1 0 2.31h-2.11v5.76a1.28 1.28 0 0 0 1.45 1.47 6.32 6.32 0 0 0 .67-.07 1.13 1.13 0 0 1 1.13 1.11 1.16 1.16 0 0 1-.71 1 5.36 5.36 0 0 1-1.85.31c-1.97.05-3.38-.81-3.38-3.39zM243 53.15a1 1 0 0 1-.51-.93 1.08 1.08 0 0 1 1.09-1.09 1.17 1.17 0 0 1 .58.16 6.2 6.2 0 0 0 3.38 1.14c1.16 0 1.82-.49 1.82-1.27 0-.91-1.25-1.22-2.62-1.65-1.74-.49-3.67-1.2-3.67-3.45 0-2.22 1.85-3.58 4.18-3.58a8.08 8.08 0 0 1 3.69 1 1.14 1.14 0 0 1 .64 1 1.08 1.08 0 0 1-1.11 1.09 1.05 1.05 0 0 1-.53-.13 6.41 6.41 0 0 0-2.76-.8c-1 0-1.65.49-1.65 1.16 0 .87 1.27 1.22 2.65 1.67 1.71.53 3.65 1.31 3.65 3.43 0 2.47-1.91 3.69-4.36 3.69a8 8 0 0 1-4.47-1.44zM110.6 46.58a8.145 8.145 0 0 1 16.29 0 8.145 8.145 0 0 1-16.29 0zm13.42 0a5.34 5.34 0 0 0-5.29-5.58 5.26 5.26 0 0 0-5.25 5.5 5.32 5.32 0 0 0 5.29 5.52 5.24 5.24 0 0 0 5.23-5.44z"/><path class="cls-2" d="M9.92 68.41a9.92 9.92 0 0 1 0-19.84h57.4v19.84H9.92z"/><path class="cls-3" d="M43.58 72.85v9.92a9.92 9.92 0 0 1-19.84 0v-9.92h19.84z"/><path class="cls-2" d="M47.48 19.84V9.92a9.92 9.92 0 1 1 19.84 0v9.92H47.48z"/><path class="cls-3" d="M23.74 24.28h57.4a9.92 9.92 0 1 1 0 19.84h-57.4V24.28z"/></g></g>
</g>
<defs>
<linearGradient id="paint0_linear_0_1" x1="0" y1="198" x2="1584" y2="198" gradientUnits="userSpaceOnUse">
<stop stop-color="#3D052C"/>
<stop offset="1"/>
</linearGradient>
<linearGradient id="paint1_linear_0_1" x1="323" y1="-224" x2="323" y2="352" gradientUnits="userSpaceOnUse">
<stop stop-color="#28F6F2" stop-opacity="0.4"/>
<stop offset="1" stop-color="#17908E" stop-opacity="0.7"/>
</linearGradient>
<linearGradient id="paint2_linear_0_1" x1="148.5" y1="38" x2="148.5" y2="140" gradientUnits="userSpaceOnUse">
<stop stop-color="white"/>
<stop offset="1" stop-color="#999999"/>
</linearGradient>
<linearGradient id="paint3_linear_0_1" x1="38" y1="260" x2="26" y2="260" gradientUnits="userSpaceOnUse">
<stop stop-color="#D9D9D9"/>
<stop offset="1" stop-color="#737373"/>
</linearGradient>
<linearGradient id="paint4_linear_0_1" x1="38" y1="97.5" x2="26" y2="97.5" gradientUnits="userSpaceOnUse">
<stop stop-color="#D9D9D9"/>
<stop offset="1" stop-color="#737373"/>
</linearGradient>
<linearGradient id="paint5_linear_0_1" x1="27.5" y1="434.5" x2="148.5" y2="787" gradientUnits="userSpaceOnUse">
<stop stop-color="#2E21BC"/>
<stop offset="1" stop-color="#150F56"/>
</linearGradient>
<clipPath id="clip0_0_1">
<rect width="1584" height="396" fill="white"/>
</clipPath>
</defs>
</svg>
